<svg id="create-set" viewBox="0 0 24 21">
    <path d="M15.281 3.93v3.515h3.516V9.79H15.28v3.516h-2.344V9.789H9.422V7.445h3.515V3.93h2.344zm-15 1.992v12.773c0 .586.215 1.094.645 1.524.43.43.937.644 1.523.644h14.883v-2.168H2.449V5.922H.281zm4.278 8.555c0 .585.205 1.084.615 1.494.41.41.908.615 1.494.615h14.941c.586 0 1.084-.205 1.495-.615.41-.41.615-.909.615-1.494V2.757c0-.585-.205-1.093-.615-1.523A1.989 1.989 0 0 0 21.609.59H6.668a1.99 1.99 0 0 0-1.494.644c-.41.43-.615.938-.615 1.524v11.719z"
          fill-rule="evenodd" fill="#fff"></path>
</svg>
